<svg width="56" height="56" viewBox="0 0 56 56" fill="none" xmlns="http://www.w3.org/2000/svg">
<path d="M20.1413 5.31397C15.2886 6.99743 11.1036 10.1927 8.20115 14.4304C5.29864 18.6682 3.83155 23.725 4.01539 28.8581C4.19923 33.9913 6.0243 38.9303 9.22254 42.9494C12.4207 46.9687 16.8236 49.8565 21.7842 51.1884C25.806 52.2262 30.0196 52.2716 34.0629 51.3212C37.7255 50.4984 41.1118 48.7387 43.8902 46.2138C46.7818 43.5059 48.8808 40.0612 49.9611 36.2499C51.1353 32.105 51.3442 27.7463 50.572 23.5081H27.988V32.8765H41.0674C40.8059 34.3707 40.2456 35.7968 39.4203 37.0694C38.5949 38.3421 37.5213 39.4353 36.2636 40.2833C34.6665 41.34 32.8662 42.0511 30.978 42.3701C29.0844 42.7225 27.1421 42.7225 25.2485 42.3701C23.3291 41.9736 21.5135 41.1816 19.9174 40.0443C17.353 38.2288 15.4275 35.6499 14.4156 32.6754C13.3869 29.6452 13.3869 26.3601 14.4156 23.3298C15.1359 21.2058 16.3266 19.2718 17.8988 17.6723C19.6981 15.8083 21.976 14.4759 24.4826 13.8213C26.9893 13.1667 29.6278 13.2152 32.1087 13.9614C34.0469 14.5561 35.8192 15.5956 37.2842 16.997C38.7591 15.5298 40.2312 14.0588 41.701 12.584C42.4597 11.791 43.287 11.0359 44.0345 10.2239C41.7976 8.14279 39.1726 6.52327 36.3091 5.45816C31.0945 3.56471 25.3888 3.51382 20.1413 5.31397Z" fill="black"/>
</svg>
