<svg width="56" height="56" viewBox="0 0 56 56" fill="none" xmlns="http://www.w3.org/2000/svg">
<path d="M50.1887 23.6779C50.7625 21.9775 50.9616 20.173 50.7722 18.3884C50.5828 16.6038 50.0096 14.8813 49.0917 13.3391C47.7109 10.9909 45.6256 9.13727 43.1317 8.04126C40.6378 6.94524 37.8621 6.66255 35.1984 7.23329C33.9843 5.88879 32.4994 4.81651 30.8412 4.08695C29.1831 3.35739 27.3893 2.98707 25.5778 3.00034C22.8593 2.98349 20.2051 3.82676 17.9949 5.40956C15.7847 6.99236 14.1317 9.23359 13.2723 11.8127C11.4986 12.1673 9.82072 12.8951 8.34991 13.9478C6.87911 15.0005 5.64905 16.354 4.7414 17.9185C3.37053 20.2477 2.78482 22.9559 3.07072 25.6434C3.35663 28.3309 4.49899 30.8552 6.32921 32.8439C5.75489 34.5441 5.55526 36.3484 5.744 38.133C5.93273 39.9176 6.50538 41.6402 7.42263 43.1827C8.80345 45.5309 10.8888 47.3845 13.3827 48.4805C15.8766 49.5766 18.6523 49.8592 21.3159 49.2885C22.5304 50.6345 24.0164 51.7076 25.676 52.4373C27.3356 53.1669 29.131 53.5364 30.9438 53.5215C33.6638 53.5386 36.3194 52.6946 38.5304 51.1104C40.7415 49.5262 42.3945 47.2829 43.2529 44.7019C45.0266 44.3475 46.7046 43.6198 48.1755 42.5671C49.6463 41.5144 50.8763 40.1607 51.7838 38.5961C53.1538 36.2673 53.739 33.5598 53.4531 30.8731C53.1672 28.1863 52.0254 25.6627 50.196 23.6743L50.1924 23.6779H50.1887ZM30.9438 50.2195C28.7042 50.2251 26.5325 49.4506 24.8019 48.0291C24.8777 47.9894 25.0148 47.9136 25.1014 47.8595L35.2995 42.0496C35.5544 41.9075 35.7666 41.6996 35.9138 41.4476C36.0611 41.1957 36.1381 40.9088 36.1367 40.6169V26.4349L40.4454 28.8888C40.4683 28.8998 40.488 28.9166 40.5025 28.9375C40.517 28.9583 40.526 28.9826 40.5284 29.0079V40.7504C40.5212 45.9758 36.2341 50.2087 30.9438 50.2195ZM10.324 41.5299C9.20116 39.6196 8.7956 37.3718 9.18004 35.1895L9.48317 35.3663L19.6776 41.1763C20.1936 41.4758 20.8324 41.4758 21.352 41.1763L33.8019 34.0853V38.993C33.8035 39.0186 33.7987 39.0442 33.788 39.0675C33.7773 39.0908 33.761 39.1111 33.7405 39.1265L23.4342 44.9978C18.844 47.6069 12.98 46.0552 10.3276 41.5335L10.324 41.5299ZM7.64276 19.5713C8.76144 17.6515 10.5297 16.1827 12.6335 15.4213V27.3876C12.6263 27.9794 12.9475 28.5279 13.4671 28.8202L25.917 35.9112L21.6046 38.3651C21.5836 38.3791 21.5594 38.3877 21.5342 38.3902C21.5091 38.3928 21.4837 38.3891 21.4603 38.3796L11.154 32.5011C10.0688 31.8887 9.116 31.0669 8.35091 30.0834C7.58581 29.0999 7.02364 27.9742 6.697 26.7718C6.37036 25.5693 6.28577 24.3139 6.44812 23.0785C6.61047 21.843 7.01653 20.6485 7.64276 19.5713ZM43.0436 27.7016L30.5974 20.6106L34.9097 18.1567C34.9308 18.1427 34.9549 18.1341 34.9801 18.1316C35.0053 18.129 35.0307 18.1327 35.0541 18.1422L45.364 24.0135C46.451 24.6255 47.4055 25.4476 48.1717 26.432C48.9379 27.4164 49.5007 28.5434 49.8271 29.7474C50.1535 30.9514 50.2372 32.2084 50.0731 33.445C49.9091 34.6816 49.5006 35.8733 48.8716 36.9505C47.7529 38.8667 45.9847 40.3354 43.8808 41.1005V29.1306C43.8823 28.8401 43.8061 28.5544 43.6602 28.3032C43.5143 28.0519 43.3039 27.8442 43.0508 27.7016H43.0436ZM47.3307 21.3323C47.2316 21.271 47.1317 21.2108 47.0312 21.1519L36.8331 15.3419C36.5785 15.1953 36.2898 15.1182 35.9959 15.1182C35.7021 15.1182 35.4134 15.1953 35.1587 15.3419L22.7089 22.4365V17.5288C22.7089 17.4746 22.7341 17.4277 22.7738 17.3953L33.0801 11.5276C37.6703 8.91492 43.538 10.4703 46.1831 15.0027C47.3018 16.9153 47.7096 19.1527 47.3307 21.3323ZM20.3741 30.0833L16.0617 27.6294C16.0388 27.6183 16.0192 27.6016 16.0046 27.5807C15.9901 27.5599 15.9812 27.5356 15.9787 27.5103V15.7678C15.9823 10.5352 20.2803 6.29865 25.5814 6.30226C27.8185 6.30207 29.9865 7.07745 31.7161 8.49632C31.6137 8.54921 31.5126 8.60456 31.4129 8.66232L21.2221 14.4759C20.9669 14.6176 20.7545 14.8254 20.6072 15.0775C20.4599 15.3295 20.3831 15.6166 20.3849 15.9085L20.3741 30.0833ZM22.7125 25.1033L28.259 21.9458L33.8019 25.1033V31.4185L28.259 34.576L22.7125 31.4185V25.1033Z" fill="black"/>
</svg>
