<svg width="516" height="420" viewBox="0 0 516 420" fill="none" xmlns="http://www.w3.org/2000/svg">
<rect x="10.1184" y="317.284" width="495.763" height="102.716" rx="22" fill="#292929"/>
<path d="M69.9748 389.011V388.523L76.5546 354.892C77.0419 351.967 77.0419 351.48 75.5797 350.749L73.3865 349.774V348.312L87.033 347.093L87.5206 347.58C87.5206 347.58 86.5456 350.749 85.8146 354.648L84.3525 362.934C83.8651 365.127 83.1341 367.564 82.8904 368.539C85.571 365.127 89.9575 360.741 94.8312 360.741C99.705 360.741 101.654 364.64 101.654 370.245C101.654 383.406 93.1254 393.398 81.672 393.398C70.2186 393.398 72.168 391.448 69.7311 389.011H69.9748ZM92.638 370.489C92.638 367.565 91.6633 366.59 89.9575 366.59C87.5206 366.59 84.1087 369.514 82.4029 371.951L78.9915 388.767C79.4788 389.742 80.9409 390.96 82.8904 390.96C88.2516 390.96 92.638 381.212 92.638 370.245V370.489Z" fill="white"/>
<path d="M97.0243 400.953C97.0243 398.759 98.4865 397.541 100.436 397.541C103.36 397.541 103.848 400.709 106.041 400.709C108.234 400.709 109.453 399.491 112.133 396.079C111.158 383.893 109.696 374.145 108.478 369.514C107.503 366.346 107.016 366.103 104.579 368.052L103.604 368.783L102.629 367.321C105.797 363.909 110.184 360.741 113.352 360.741C116.52 360.741 116.52 361.716 117.251 365.371C118.469 371.464 119.444 379.019 119.931 386.087C123.83 380.238 127.729 373.414 127.729 369.271C127.729 365.128 125.292 366.346 125.292 363.909C125.292 361.472 126.998 360.741 128.948 360.741C130.897 360.741 132.847 362.203 132.847 365.128C132.847 370.489 126.998 381.212 119.931 390.473C113.351 399.491 107.747 405.096 102.142 405.096C96.5371 405.096 97.0243 403.39 97.0243 400.953Z" fill="white"/>
<path d="M154.573 388.767C150.187 384.868 147.75 378.775 147.75 370.976C147.75 363.178 149.943 357.085 154.573 353.186C159.203 349.286 165.295 347.093 173.337 347.093C181.379 347.093 179.429 347.093 182.11 347.824C184.547 348.312 186.984 349.043 189.421 350.261V362.934C185.765 361.228 181.623 360.253 177.236 360.253C172.85 360.253 170.169 360.984 168.22 362.69C166.27 364.396 165.295 367.077 165.295 370.976C165.295 374.876 166.27 377.313 168.22 379.019C170.169 380.725 173.093 381.456 177.236 381.456C181.379 381.456 185.765 380.481 189.664 378.288V391.692C185.278 393.641 179.917 394.86 173.337 394.86C166.758 394.86 158.96 392.91 154.573 388.767Z" fill="white"/>
<path d="M193.563 370.977C193.563 363.178 195.757 357.329 199.899 353.186C204.042 349.043 210.378 347.093 218.907 347.093C227.436 347.093 233.772 349.043 238.158 353.186C242.301 357.329 244.494 363.178 244.494 370.977C244.494 386.818 235.965 394.86 218.907 394.86C202.092 394.86 193.563 386.818 193.563 370.977ZM224.999 379.019C226.218 377.313 226.949 374.632 226.949 370.977C226.949 367.321 226.218 364.64 224.999 362.934C223.781 361.228 221.831 360.497 218.907 360.497C215.983 360.497 214.277 361.472 213.059 362.934C211.84 364.64 211.109 367.321 211.109 370.977C211.109 374.632 211.84 377.313 213.059 379.019C214.277 380.725 216.226 381.456 218.907 381.456C221.587 381.456 223.781 380.725 224.999 379.019Z" fill="white"/>
<path d="M248.394 348.068H264.477L264.964 351.48C266.67 350.261 269.107 349.043 271.788 348.312C274.468 347.581 277.392 347.093 280.317 347.093C285.678 347.093 289.821 348.555 292.258 351.236C294.694 354.161 295.913 358.547 295.913 364.396V393.641H278.611V366.102C278.611 364.153 278.123 362.447 277.392 361.716C276.418 360.741 274.956 360.253 273.006 360.253C271.057 360.253 270.326 360.497 269.107 361.228C267.645 361.959 266.67 362.691 265.695 363.665V393.641H248.394V347.824V348.068Z" fill="white"/>
<path d="M295.913 348.067H313.946L322.231 374.875L330.517 348.067H348.55L331.491 393.884H313.458L296.4 348.067H295.913Z" fill="white"/>
<path d="M353.911 389.986C348.793 385.843 346.357 378.775 346.357 371.22C346.357 363.665 348.306 357.573 352.692 353.43C357.079 349.287 363.902 347.337 372.187 347.337C380.473 347.337 386.078 349.287 390.464 352.942C394.851 356.842 397.044 361.959 397.044 368.54V376.582H364.39C365.121 379.019 366.339 380.725 368.776 381.7C371.213 382.675 374.868 383.406 379.498 383.406C384.128 383.406 384.859 383.406 387.784 382.675C388.758 382.675 390.464 382.187 391.195 382.187V393.398C386.809 394.616 381.204 395.347 374.868 395.347C366.095 395.347 359.028 394.616 353.911 390.473V389.986ZM379.011 366.59C379.011 364.397 376.574 359.522 371.457 359.522C366.339 359.522 363.902 364.397 363.902 366.59H378.767H379.011Z" fill="white"/>
<path d="M410.69 370.488L394.607 348.067H413.371L446.269 393.884H427.505L420.194 383.649L412.884 393.884H394.119L410.934 370.732L410.69 370.488Z" fill="white"/>
<path d="M427.017 348.068H445.538L431.16 368.052L421.656 355.136L426.774 347.824L427.017 348.068Z" fill="white"/>
<path d="M516 135.588L502.163 129.612C497.131 127.41 489.582 124.58 481.091 122.693C461.592 118.604 444.924 120.491 432.03 128.354C421.651 134.644 413.789 144.08 409.072 156.661L393.347 153.516L391.46 162.322C380.767 154.459 367.244 149.427 351.204 147.854C329.819 145.967 310.634 150.999 296.168 162.951C294.595 164.209 292.708 165.782 291.45 167.355C282.644 151.314 266.92 142.507 245.848 143.136C241.131 143.136 236.728 143.766 232.64 145.024L231.382 99.7327L152.129 101.934L152.758 131.814C134.203 115.459 107.785 108.539 77.5932 113.886C22.5565 123.322 -7.94952 167.669 1.79985 224.283C6.51728 252.275 19.0971 274.606 37.9668 288.13C52.1191 298.509 69.7309 303.542 89.2296 303.542C108.728 303.542 102.753 302.913 109.672 301.655C128.542 298.509 144.266 291.275 156.532 281.211V288.759L301.514 284.985V280.896C312.207 287.501 325.416 291.904 340.512 293.163C343.342 293.163 346.173 293.477 348.688 293.477C360.325 293.477 371.647 290.961 381.711 286.558L380.138 294.106L457.818 309.832L472.914 234.976L494.929 239.38L507.509 176.476L515.686 135.588H516ZM154.33 200.694L138.605 199.75L154.016 193.774V200.379L154.33 200.694ZM98.0354 230.259C93.6325 230.888 91.4311 229.629 89.8586 228.057C87.6572 226.17 83.8832 221.137 81.9962 209.815C81.0527 204.153 78.8512 186.226 88.6006 184.339C89.2296 184.339 89.8587 184.339 90.4877 184.339C92.6891 184.339 95.205 185.597 97.092 193.774L101.809 211.387V218.936C102.438 229.629 99.608 229.944 97.721 230.259H98.0354Z" fill="#EE342F"/>
<path d="M20.3553 220.509C12.4929 174.275 36.3946 139.677 80.7385 131.814C118.163 125.524 147.726 140.935 157.161 172.702L115.648 188.428C110.93 171.129 100.237 163.266 85.7705 165.468C67.5298 168.613 59.0384 186.226 63.7558 212.646C68.1588 238.437 82.6256 251.647 101.495 248.501C115.019 246.3 122.252 235.292 121.309 217.678L166.281 219.88C164.394 253.534 142.694 276.179 106.213 282.47C59.9819 290.333 28.2177 267.373 20.3553 220.195V220.509Z" fill="#FDEFD2"/>
<path d="M174.773 268.946L170.999 119.863L212.512 118.919L214.085 182.767C220.375 168.928 230.753 162.323 245.534 161.694C267.864 161.065 279.5 174.904 280.129 202.267L281.701 266.115L240.188 267.058L238.616 207.3C238.616 197.235 234.527 192.517 226.979 192.517C218.802 192.517 214.399 199.122 214.714 211.074L216.286 267.373L174.773 268.317V268.946Z" fill="#FDEFD2"/>
<path d="M396.807 234.033L326.674 227.428C325.731 237.808 333.279 245.042 344.6 246.3C352.777 246.929 359.696 243.784 365.043 236.55L393.347 253.219C382.969 268.316 363.156 276.494 341.456 274.606C305.289 271.147 285.161 249.13 288.306 216.106C291.451 183.081 315.038 163.581 348.689 167.041C383.283 170.186 400.581 192.517 397.436 225.856L396.492 234.348L396.807 234.033ZM359.067 209.186C360.325 197.235 355.608 190.001 345.858 189.057C336.109 188.113 330.134 194.404 328.561 206.356L358.753 209.186H359.067Z" fill="#FDEFD2"/>
<path d="M463.164 186.855L485.179 191.259L479.832 217.049L457.818 212.646L442.722 287.502L402.152 279.324L417.248 204.469L402.467 201.323L407.813 175.533L422.594 178.678L423.852 172.702C429.199 145.653 447.125 135.274 477.317 141.25C483.292 142.508 489.268 144.395 494.614 146.911L488.953 174.904C485.808 173.646 482.663 172.702 479.832 172.073C471.656 170.5 465.995 173.646 464.737 180.88L463.479 186.855H463.164Z" fill="#FDEFD2"/>
<path d="M419.135 35.2567C416.304 20.7888 399.322 9.46606 378.565 9.46606C357.808 9.46606 352.147 14.4984 344.914 22.3614C337.366 22.9905 330.132 25.1921 323.843 29.5953C314.722 35.8857 308.432 45.6359 306.545 56.6441C304.658 67.6523 306.86 78.6605 313.464 87.7816C316.609 92.4994 321.012 96.2737 325.73 99.4189L318.496 139.048C317.553 144.71 336.108 152.573 360.324 156.976C384.226 161.379 404.668 160.436 405.611 154.774L412.845 115.145C430.457 111.371 444.609 96.2737 445.867 77.4024C447.125 58.5312 435.803 41.8616 419.135 35.2567Z" fill="white"/>
<path d="M426.683 24.8776C417.563 12.6113 403.725 3.80475 388.315 0.974067C372.59 -1.85661 356.865 1.60312 343.971 9.78064C334.222 10.4097 325.101 13.5549 316.924 19.2162C304.974 27.3938 297.111 39.9745 294.595 54.1279C292.079 68.2813 295.224 82.7493 303.401 94.7011C307.175 100.362 312.207 105.08 317.868 108.854L312.521 138.419C311.578 144.081 316.295 155.089 359.381 162.952C370.074 164.839 380.452 165.783 388.629 165.783C396.806 165.783 390.831 165.783 391.774 165.783C399.637 165.783 410.329 164.21 411.587 156.347L416.934 126.782C439.263 121.435 456.56 102.25 458.133 78.0315C459.705 54.757 446.497 33.9987 426.683 24.5631V24.8776ZM399.322 152.573C395.234 153.831 381.71 154.46 360.954 151C340.512 147.226 327.932 141.879 324.472 139.363L325.73 132.129C332.964 135.589 344.914 139.992 362.212 143.137C373.848 145.339 383.283 145.968 390.831 145.968C398.379 145.968 397.75 145.968 400.266 145.653L399.008 152.887L399.322 152.573ZM403.096 132.443C396.806 133.072 383.597 134.016 364.728 130.556C345.858 127.097 333.907 121.75 328.246 118.919L328.875 115.145L330.133 107.282C336.108 112.943 343.971 116.717 352.462 117.976C356.865 118.919 361.583 118.919 366.3 118.605C371.017 120.806 375.735 122.379 380.767 123.322C383.283 123.637 386.113 123.951 388.629 123.951C394.29 123.951 399.637 123.008 404.669 120.806L403.411 128.04L402.781 131.814L403.096 132.443ZM445.553 77.4025C444.295 95.3301 431.715 109.483 415.676 114.516C419.136 111.056 421.651 106.967 423.224 102.564C424.167 99.1043 422.28 95.6446 418.821 94.7011C415.362 93.7575 411.902 95.6446 410.959 99.1043C409.701 103.822 405.927 107.911 400.266 110.113C395.548 112 390.202 112.629 384.855 112C382.339 112 379.823 111.056 377.307 110.113C376.678 110.113 375.735 109.484 375.106 109.169L377.307 97.8463C377.936 94.3865 375.735 91.2413 372.276 90.6123C368.816 89.9832 365.671 92.1849 365.042 95.6446L363.155 106.967C362.526 106.967 361.583 106.967 360.954 106.967C358.438 106.967 355.922 106.653 353.72 106.024C348.374 104.766 343.342 102.249 339.568 98.7898C335.165 94.701 332.963 89.6687 333.278 85.2655C333.278 81.8057 330.762 78.975 327.303 78.6605C323.843 78.6605 321.013 81.1767 320.698 84.6364C320.698 89.3542 321.642 94.3865 324.158 98.7898C320.384 95.9591 316.924 92.8139 314.094 88.7251C307.804 79.6041 305.288 68.5959 307.175 57.5877C309.062 46.5795 315.352 37.1439 324.472 30.5389C324.787 30.5389 325.416 29.9099 325.73 29.5954C325.101 32.1115 325.73 34.9422 328.246 36.5148C331.077 38.402 335.165 37.7729 337.052 34.9422V34.3132C340.511 29.9099 344.285 26.1357 348.374 22.9905C354.349 18.5872 360.954 15.7565 368.187 14.1839C374.163 12.9258 380.138 12.9258 386.428 14.1839C392.403 15.1275 398.379 17.6436 403.411 20.7888C409.701 24.5631 415.047 29.9099 418.821 35.8858C421.651 40.289 423.853 45.3214 425.425 50.3537C426.054 53.1844 428.57 55.0715 431.401 55.0715C434.231 55.0715 432.344 55.0715 432.973 55.0715C435.489 54.4425 437.376 52.2408 437.691 49.7247C443.666 57.5877 446.811 67.3378 446.182 78.0315L445.553 77.4025Z" fill="#EE342F"/>
</svg>