<svg width="48" height="48" viewBox="0 0 48 48" fill="none" xmlns="http://www.w3.org/2000/svg">
<g>
<path d="M6 32H42V42C42 45.3137 39.3137 48 36 48H12C8.68629 48 6 45.3137 6 42V32Z" fill="#F1A71A"/>
<path fill-rule="evenodd" clip-rule="evenodd" d="M42 30C43.7795 24.6614 48 17.6534 48 12C48 7.02944 43.9706 3 39 3C36.974 3 35.1044 3.66943 33.6003 4.79916C31.4109 1.88497 27.9256 0 24 0C20.0744 0 16.5891 1.88496 14.3998 4.79916C12.8956 3.66943 11.026 3 9 3C4.02944 3 0 7.02944 0 12C0 17.6534 4.22046 24.6614 6 30H12.9922L11.0077 14.124C10.9392 13.576 11.3279 13.0762 11.876 13.0077C12.424 12.9392 12.9238 13.3279 12.9923 13.876L14.9923 29.876C14.9975 29.9176 15.0001 29.959 15.0001 30H23V14C23 13.4477 23.4477 13 24 13C24.5523 13 25 13.4477 25 14V30H32.9999C32.9999 29.959 33.0025 29.9176 33.0077 29.876L35.0077 13.876C35.0762 13.3279 35.576 12.9392 36.124 13.0077C36.6721 13.0762 37.0608 13.576 36.9923 14.124L35.0078 30H42Z" fill="#EB2E29"/>
</g>
<defs>
</defs>
</svg>
