<svg width="120" height="120" viewBox="0 0 120 120" fill="none" xmlns="http://www.w3.org/2000/svg">
<path d="M75.2591 94.7823C92.621 92.8604 108.988 83.6416 118 68.2552C113.733 106.312 71.9726 130.366 37.8865 115.598C34.7456 114.24 32.042 111.983 30.1866 109.08C22.5265 97.0937 20.0083 81.8416 23.6264 68C33.9637 85.7787 54.9827 96.6765 75.2591 94.7823Z" fill="#0C4FE3"/>
<path d="M22.3739 56.4684C15.3479 72.9094 15.0436 92.159 23.6573 108C-6.65607 84.9061 -6.32528 35.4879 23.2868 12.626C26.0257 10.5129 29.2807 9.25876 32.6944 9.06785C46.733 8.31812 60.9968 13.812 71 24.0501C50.676 24.2547 30.8816 37.4374 22.3739 56.4684Z" fill="#72D989"/>
<path d="M81.1653 29.0167C70.8465 14.6924 54.6956 4.94048 37 4.64376C71.2065 -10.8136 113.282 14.2473 117.862 51.2989C118.288 54.7383 117.729 58.2455 116.198 61.3474C109.806 74.2694 97.9555 84.2911 84.1082 88C94.2541 69.2652 93.0031 46.376 81.1653 29.0167Z" fill="#11CBD0"/>
</svg>
