<svg width="49" height="48" viewBox="0 0 49 48" fill="none" xmlns="http://www.w3.org/2000/svg">
<path d="M39.8967 10.5373C39.6241 6.03521 34.932 1.91388 28.637 1.07338C22.342 0.232872 20.4214 1.52972 17.9093 3.62129C15.5947 3.50641 13.3119 3.88115 11.226 4.96176C8.20529 6.50003 5.90293 9.2021 4.88493 12.464C3.86694 15.7258 4.08888 19.1532 5.72253 22.1867C6.4853 23.7447 7.66781 25.0675 8.97115 26.2124L5.17284 37.9372C4.65748 39.6159 9.96647 42.7517 17.1324 45.0676C24.2029 47.3707 30.4407 47.9124 30.9561 46.2338L34.7544 34.5089C40.2485 34.0775 45.1518 30.0724 46.2974 24.4006C47.4431 18.7287 44.6844 13.2152 39.8967 10.5373Z" fill="#FDEFD2"/>
<path d="M41.1667 9.03206C39.0105 5.23154 35.3941 2.24661 31.1216 0.901678C26.7598 -0.454311 22.1769 -0.0257737 18.2311 1.84068C15.4429 1.6763 12.7448 2.24785 10.2259 3.56638C6.54774 5.46601 3.87469 8.75857 2.66322 12.6853C1.45176 16.612 1.83529 20.827 3.73492 24.5051C4.60657 26.2439 5.86833 27.7592 7.34169 29.029L4.78528 37.2282C4.31854 38.8011 5.26989 42.0899 17.2174 45.8356C20.1847 46.747 23.096 47.3797 25.4159 47.6672C27.7357 47.9547 26.0404 47.7446 26.3081 47.7778C28.5388 48.0543 31.6277 47.9841 32.2611 45.7977L34.8175 37.5985C41.3405 36.8668 46.9226 32.0323 48.2203 25.2172C49.4848 18.6698 46.4672 12.3164 41.1778 8.94285L41.1667 9.03206ZM28.914 44.2957C27.7098 44.5088 23.851 44.2117 18.0837 42.5004C12.4168 40.7108 9.0357 38.7516 8.14268 37.9161L8.75397 35.9082C10.6845 37.144 13.9203 38.8134 18.7171 40.3139C21.941 41.3477 24.5957 41.8579 26.7372 42.1233C28.8786 42.3888 28.7001 42.3666 29.425 42.3659L28.8137 44.3739L28.914 44.2957ZM30.6925 38.7179C28.8859 38.6752 25.1052 38.4784 19.8733 36.8334C14.6413 35.1883 11.4388 33.2512 9.93225 32.2491L10.2434 31.2006L10.8768 29.0141C12.373 30.8303 14.471 32.1775 16.8358 32.833C18.0518 33.2555 19.3902 33.4214 20.7396 33.4981C22.0006 34.2886 23.2837 34.9006 24.6782 35.3452C25.3809 35.5229 26.1729 35.7116 26.8867 35.8001C28.4928 35.9992 30.0428 35.9195 31.5479 35.4719L30.9366 37.4798L30.6254 38.5284L30.6925 38.7179ZM44.8297 24.7969C43.8424 29.8386 39.6194 33.2108 34.892 34.0744C35.9951 33.2146 36.8526 32.1431 37.4535 30.9492C37.8429 30.0009 37.4292 28.9531 36.4809 28.5638C35.5326 28.1745 34.4848 28.5881 34.0955 29.5365C33.5727 30.8306 32.3582 31.8578 30.6747 32.2834C29.2699 32.6528 27.731 32.6433 26.2362 32.2768C25.5224 32.1883 24.8418 31.8322 24.1611 31.476C23.9827 31.4539 23.7372 31.2423 23.5698 31.131L24.5924 27.9962C24.8925 27.0369 24.3786 26.0672 23.4192 25.7671C22.4598 25.467 21.4902 25.981 21.1901 26.9403L20.2566 30.0861C20.0781 30.064 19.8105 30.0308 19.632 30.0087C18.9182 29.9202 18.2154 29.7425 17.613 29.4867C16.1403 28.9418 14.8012 28.051 13.8521 26.9368C12.7467 25.622 12.2991 24.117 12.5432 22.8789C12.6648 21.8974 12.0506 21.0059 11.0801 20.795C10.0987 20.6734 9.20712 21.2877 8.99624 22.2581C8.83036 23.5965 8.92112 25.0573 9.4801 26.3949C8.50892 25.4592 7.63801 24.4453 6.97875 23.1858C5.51494 20.3771 5.18819 17.1657 6.11061 14.1091C7.03304 11.0526 9.14933 8.59696 11.9691 7.04393C12.0584 7.05498 12.2589 6.89865 12.3592 6.82048C12.0923 7.51217 12.1712 8.33734 12.8297 8.87194C13.5664 9.50683 14.7485 9.47214 15.3833 8.73546C16.5197 7.60795 17.7452 6.49149 19.0158 5.743C20.8659 4.70396 22.8391 4.13316 24.9466 3.94139C26.6862 3.79461 28.3815 4.00473 30.1217 4.58282C31.7839 5.06062 33.3907 5.98456 34.7077 7.05376C36.3595 8.34566 37.6884 10.0505 38.549 11.8785C39.1972 13.2272 39.6448 14.7322 39.914 16.2151C39.9929 17.0403 40.6404 17.6641 41.4434 17.7637C42.2465 17.8632 41.7111 17.7968 41.8896 17.819C42.6255 17.729 43.2382 17.1707 43.4159 16.468C44.8348 18.9088 45.3842 21.7854 44.8297 24.7969Z" fill="#EE342F"/>
</svg>
