<svg width="145" height="54" viewBox="0 0 145 54" fill="none" xmlns="http://www.w3.org/2000/svg">
<path d="M76.6562 40.8144V40.749L77.5392 36.236C77.6046 35.8435 77.6046 35.7781 77.4084 35.68L77.1141 35.5492V35.353L78.9454 35.1895L79.0109 35.2549C79.0109 35.2549 78.88 35.68 78.7819 36.2032L78.5857 37.3151C78.5203 37.6095 78.4222 37.9365 78.3895 38.0673C78.7492 37.6095 79.3379 37.0208 79.992 37.0208C80.646 37.0208 80.9076 37.5441 80.9076 38.2962C80.9076 40.0622 79.763 41.403 78.226 41.403C76.6889 41.403 76.9506 41.1414 76.6235 40.8144H76.6562ZM79.6976 38.3289C79.6976 37.9365 79.5668 37.8057 79.3379 37.8057C79.0109 37.8057 78.553 38.1981 78.3241 38.5252L77.8663 40.7817C77.9317 40.9125 78.1279 41.076 78.3895 41.076C79.109 41.076 79.6976 39.7679 79.6976 38.2962V38.3289Z" fill="#EE342F"/>
<path d="M80.2862 42.4167C80.2862 42.1224 80.4825 41.9589 80.7441 41.9589C81.1365 41.9589 81.2019 42.384 81.4963 42.384C81.7906 42.384 81.9541 42.2205 82.3138 41.7627C82.183 40.1275 81.9868 38.8194 81.8233 38.1981C81.6925 37.7729 81.6271 37.7402 81.3001 38.0018L81.1692 38.0999L81.0384 37.9037C81.4636 37.4459 82.0522 37.0208 82.4774 37.0208C82.9025 37.0208 82.9025 37.1516 83.0006 37.6421C83.1641 38.4597 83.2949 39.4735 83.3603 40.4219C83.8836 39.637 84.4068 38.7213 84.4068 38.1654C84.4068 37.6094 84.0798 37.7729 84.0798 37.4459C84.0798 37.1189 84.3087 37.0208 84.5704 37.0208C84.832 37.0208 85.0936 37.217 85.0936 37.6094C85.0936 38.3289 84.3087 39.7678 83.3603 41.0105C82.4773 42.2205 81.7252 42.9727 80.973 42.9727C80.2209 42.9727 80.2862 42.7438 80.2862 42.4167Z" fill="#EE342F"/>
<path d="M88.0093 40.7816C87.4206 40.2584 87.0936 39.4408 87.0936 38.3943C87.0936 37.3478 87.3879 36.5303 88.0093 36.007C88.6307 35.4838 89.4482 35.1895 90.5274 35.1895C91.6066 35.1895 91.345 35.1894 91.7047 35.2876C92.0317 35.353 92.3588 35.4511 92.6858 35.6146V37.3151C92.1952 37.0862 91.6393 36.9554 91.0506 36.9554C90.462 36.9554 90.1023 37.0535 89.8407 37.2824C89.579 37.5114 89.4482 37.8711 89.4482 38.3943C89.4482 38.9176 89.579 39.2446 89.8407 39.4735C90.1023 39.7024 90.4947 39.8006 91.0506 39.8006C91.6066 39.8006 92.1952 39.6698 92.7185 39.3754V41.1741C92.1298 41.4357 91.4104 41.5992 90.5274 41.5992C89.6444 41.5992 88.5979 41.3376 88.0093 40.7816Z" fill="#EE342F"/>
<path d="M93.2418 38.3943C93.2418 37.3478 93.5361 36.563 94.092 36.007C94.648 35.4511 95.4982 35.1895 96.6428 35.1895C97.7874 35.1895 98.6377 35.4511 99.2264 36.007C99.7823 36.563 100.077 37.3478 100.077 38.3943C100.077 40.52 98.932 41.5992 96.6428 41.5992C94.3863 41.5992 93.2418 40.52 93.2418 38.3943ZM97.4604 39.4735C97.6239 39.2446 97.722 38.8849 97.722 38.3943C97.722 37.9038 97.6239 37.5441 97.4604 37.3151C97.2969 37.0862 97.0353 36.9881 96.6428 36.9881C96.2504 36.9881 96.0215 37.1189 95.858 37.3151C95.6945 37.5441 95.5964 37.9038 95.5964 38.3943C95.5964 38.8849 95.6945 39.2446 95.858 39.4735C96.0215 39.7024 96.2831 39.8006 96.6428 39.8006C97.0026 39.8006 97.2969 39.7024 97.4604 39.4735Z" fill="#EE342F"/>
<path d="M100.6 35.3203H102.758L102.824 35.7781C103.053 35.6146 103.38 35.4511 103.739 35.353C104.099 35.2549 104.492 35.1895 104.884 35.1895C105.603 35.1895 106.159 35.3857 106.486 35.7454C106.813 36.1378 106.977 36.7265 106.977 37.5114V41.4357H104.655V37.7403C104.655 37.4787 104.59 37.2497 104.492 37.1516C104.361 37.0208 104.165 36.9554 103.903 36.9554C103.641 36.9554 103.543 36.9881 103.38 37.0862C103.183 37.1843 103.053 37.2824 102.922 37.4132V41.4357H100.6V35.2876V35.3203Z" fill="#EE342F"/>
<path d="M106.977 35.3203H109.397L110.509 38.9176L111.621 35.3203H114.041L111.752 41.4685H109.332L107.042 35.3203H106.977Z" fill="#EE342F"/>
<path d="M114.76 40.9452C114.074 40.3892 113.746 39.4409 113.746 38.4271C113.746 37.4133 114.008 36.5957 114.597 36.0397C115.185 35.4838 116.101 35.2222 117.213 35.2222C118.325 35.2222 119.077 35.4838 119.666 35.9743C120.254 36.4976 120.549 37.1843 120.549 38.0673V39.1465H116.167C116.265 39.4735 116.428 39.7025 116.755 39.8333C117.082 39.9641 117.573 40.0622 118.194 40.0622C118.815 40.0622 118.914 40.0622 119.306 39.9641C119.437 39.9641 119.666 39.8987 119.764 39.8987V41.403C119.175 41.5665 118.423 41.6647 117.573 41.6647C116.395 41.6647 115.447 41.5665 114.76 41.0106V40.9452ZM118.129 37.8057C118.129 37.5114 117.802 36.8573 117.115 36.8573C116.428 36.8573 116.101 37.5114 116.101 37.8057H118.096H118.129Z" fill="#EE342F"/>
<path d="M122.38 38.329L120.222 35.3203H122.74L127.155 41.4685H124.637L123.655 40.0949L122.674 41.4685H120.156L122.413 38.3617L122.38 38.329Z" fill="#EE342F"/>
<path d="M124.571 35.3203H127.057L125.127 38.0019L123.852 36.2687L124.538 35.2876L124.571 35.3203Z" fill="#EE342F"/>
<g clip-path="url(#clip0_110_2)">
<path d="M79.1964 18.4901L77.4037 17.8154C76.7517 17.5664 75.7764 17.2528 74.6871 17.0647C72.1873 16.6637 70.0829 17.0041 68.4937 18.0802C67.2144 18.9414 66.2734 20.1866 65.7508 21.812L63.7357 21.508L63.5495 22.6372C62.1446 21.7039 60.3975 21.147 58.352 21.0445C55.6259 20.9344 53.2212 21.6893 51.4572 23.2938C51.2652 23.463 51.0352 23.6741 50.885 23.8813C49.6701 21.8986 47.6208 20.876 44.9499 21.0834C44.3511 21.1119 43.796 21.2184 43.2846 21.4028L42.8508 15.6618L32.804 16.4209L33.0647 20.2096C30.6104 18.246 27.2151 17.5277 23.4151 18.3891C16.486 19.9198 12.882 25.7333 14.4622 32.8601C15.2305 36.3845 16.9625 39.1428 19.4396 40.7452C21.2988 41.9769 23.5649 42.5091 26.04 42.3911C28.5151 42.273 27.7528 42.2294 28.6234 42.0278C30.9997 41.5144 32.9519 40.501 34.4479 39.1493L34.4936 40.1074L52.8744 38.7509L52.8497 38.2319C54.2469 39.0055 55.9503 39.4845 57.8741 39.5528C58.2334 39.5356 58.5946 39.5584 58.914 39.5432C60.391 39.4728 61.813 39.0849 63.0638 38.4651L62.9099 39.4327L72.8655 40.9586L74.3287 31.366L77.1499 31.7916L78.366 23.7313L79.1565 18.4921L79.1964 18.4901ZM33.6812 28.9428L31.6794 28.9182L33.5994 28.0665L33.6394 28.9048L33.6812 28.9428ZM26.7142 33.0361C26.1592 33.1426 25.8721 32.9963 25.663 32.8062C25.3721 32.58 24.8626 31.9641 24.5546 30.5384C24.4005 29.8255 24.0126 27.5633 25.2387 27.2648C25.3185 27.261 25.3984 27.2572 25.4782 27.2534C25.7577 27.24 26.0847 27.3845 26.3737 28.411L27.0791 30.618L27.1248 31.5761C27.2693 32.9297 26.912 32.9867 26.6743 33.0381L26.7142 33.0361Z" fill="#EE342F"/>
<path d="M16.7949 32.2686C15.517 26.4479 18.3416 21.9119 23.9228 20.6454C28.6354 19.6205 32.4812 21.3977 33.8711 25.3725L28.6968 27.6199C27.9932 25.4528 26.5883 24.5195 24.7653 24.8865C22.4689 25.3961 21.4977 27.6831 22.2564 31.0079C22.9714 34.2548 24.8877 35.8439 27.2639 35.3304C28.9672 34.9691 29.8187 33.5281 29.5924 31.2983L35.3144 31.3055C35.2785 35.5884 32.6611 38.5941 28.0683 39.6133C22.2476 40.8912 18.0766 38.1693 16.793 32.2287L16.7949 32.2686Z" fill="#FDEFD2"/>
<path d="M36.6893 37.4818L35.3079 18.5822L40.5717 18.2111L41.1578 26.3055C41.8724 24.5109 43.1499 23.6098 45.0223 23.4405C47.8529 23.2255 49.4137 24.9115 49.6592 28.3808L50.2453 36.4753L44.9814 36.8463L44.4201 29.2709C44.3592 27.9934 43.8117 27.4194 42.8536 27.465C41.8156 27.5145 41.2967 28.3795 41.409 29.8946L41.9493 37.0309L36.6855 37.402L36.6893 37.4818Z" fill="#FDEFD2"/>
<path d="M64.6621 31.7066L55.7198 31.2928C55.6629 32.6159 56.6647 33.4883 58.1095 33.5795C59.1513 33.6098 60.0105 33.1688 60.6454 32.2182L64.3391 34.1627C63.1131 36.1417 60.6476 37.2996 57.8816 37.1914C53.2698 36.9712 50.5816 34.2986 50.7809 30.0879C50.9802 25.8771 53.8563 23.2593 58.1487 23.4947C62.5591 23.6845 64.8899 26.4142 64.6925 30.6648L64.6241 31.7484L64.6621 31.7066ZM59.7212 28.7813C59.8086 27.2567 59.166 26.367 57.9227 26.3063C56.6794 26.2455 55.959 27.0801 55.8318 28.6066L59.6813 28.7832L59.7212 28.7813Z" fill="#FDEFD2"/>
<path d="M72.7999 25.317L75.621 25.7426L75.0984 29.0485L72.2773 28.6229L70.8142 38.2155L65.6149 37.4231L67.0781 27.8305L65.1827 27.5208L65.7053 24.2149L67.6006 24.5246L67.7241 23.7585C68.239 20.293 70.4517 18.8671 74.3203 19.4428C75.0864 19.5663 75.8563 19.7697 76.5502 20.0567L76.001 23.6439C75.5942 23.5033 75.1893 23.4025 74.8262 23.3398C73.7787 23.1897 73.0792 23.6232 72.9633 24.549L72.8398 25.3151L72.7999 25.317Z" fill="#FDEFD2"/>
<path d="M97.9741 14.4149C97.5942 12.4735 95.3151 10.9541 92.5296 10.9541C89.7441 10.9541 88.9844 11.6294 88.0136 12.6845C87.0007 12.7689 86.03 13.0644 85.1859 13.6552C83.9619 14.4993 83.1178 15.8077 82.8646 17.2849C82.6114 18.7621 82.9068 20.2392 83.7931 21.4632C84.2152 22.0963 84.8061 22.6027 85.4391 23.0248L84.4684 28.3426C84.3418 29.1023 86.8319 30.1574 90.0817 30.7483C93.2893 31.3392 96.0326 31.2126 96.1592 30.4529L97.13 25.135C99.4934 24.6286 101.393 22.6027 101.561 20.0704C101.73 17.5381 100.211 15.3012 97.9741 14.4149Z" fill="white"/>
<path d="M98.9871 13.0221C97.7632 11.3761 95.9061 10.1944 93.8381 9.81455C91.7278 9.4347 89.6176 9.89896 87.8872 10.9963C86.5788 11.0807 85.3549 11.5028 84.2575 12.2624C82.6537 13.3598 81.5986 15.048 81.261 16.9472C80.9233 18.8464 81.3454 20.7879 82.4427 22.3917C82.9492 23.1514 83.6245 23.7844 84.3841 24.2909L83.6666 28.2582C83.54 29.0179 84.1731 30.4951 89.9552 31.5502C91.3902 31.8034 92.783 31.93 93.8803 31.93C94.9776 31.93 94.1757 31.93 94.3023 31.93C95.3575 31.93 96.7924 31.719 96.9613 30.6639L97.6787 26.6966C100.675 25.9791 102.997 23.4046 103.208 20.1548C103.419 17.0316 101.646 14.2461 98.9871 12.9799V13.0221ZM95.3153 30.1574C94.7666 30.3262 92.9518 30.4106 90.1663 29.9464C87.4229 29.4399 85.7347 28.7224 85.2704 28.3848L85.4393 27.4141C86.41 27.8783 88.0138 28.4692 90.3351 28.8913C91.8966 29.1867 93.1628 29.2711 94.1757 29.2711C95.1887 29.2711 95.1043 29.2711 95.4419 29.2289L95.2731 30.1996L95.3153 30.1574ZM95.8217 27.4563C94.9776 27.5407 93.205 27.6673 90.6727 27.2031C88.1404 26.7388 86.5366 26.0213 85.7769 25.6415L85.8613 25.135L86.0301 24.0799C86.832 24.8396 87.8872 25.346 89.0267 25.5149C89.6176 25.6415 90.2506 25.6415 90.8837 25.5993C91.5168 25.8947 92.1499 26.1057 92.8252 26.2323C93.1628 26.2745 93.5427 26.3167 93.8803 26.3167C94.64 26.3167 95.3575 26.1901 96.0328 25.8947L95.8639 26.8654L95.7795 27.3719L95.8217 27.4563ZM101.519 20.0704C101.351 22.4761 99.6624 24.3753 97.51 25.0506C97.9742 24.5863 98.3118 24.0377 98.5228 23.4468C98.6495 22.9825 98.3963 22.5183 97.932 22.3917C97.4677 22.2651 97.0035 22.5183 96.8769 22.9825C96.7081 23.6156 96.2016 24.1643 95.4419 24.4597C94.8088 24.713 94.0913 24.7974 93.3738 24.713C93.0362 24.713 92.6985 24.5863 92.3609 24.4597C92.2765 24.4597 92.1499 24.3753 92.0655 24.3331L92.3609 22.8137C92.4453 22.3495 92.1499 21.9274 91.6856 21.843C91.2214 21.7586 90.7993 22.054 90.7149 22.5183L90.4617 24.0377C90.3773 24.0377 90.2507 24.0377 90.1663 24.0377C89.8286 24.0377 89.4909 23.9955 89.1955 23.9111C88.478 23.7422 87.8027 23.4046 87.2963 22.9403C86.7054 22.3917 86.41 21.7164 86.4522 21.1255C86.4522 20.6613 86.1146 20.2814 85.6503 20.2392C85.186 20.2392 84.8062 20.5769 84.764 21.0411C84.764 21.6742 84.8906 22.3495 85.2282 22.9403C84.7218 22.5605 84.2575 22.1384 83.8777 21.5898C83.0336 20.3658 82.6959 18.8886 82.9492 17.4115C83.2024 15.9343 84.0465 14.6681 85.2704 13.7818C85.3126 13.7818 85.3971 13.6974 85.4393 13.6552C85.3549 13.9929 85.4393 14.3727 85.7769 14.5837C86.1568 14.837 86.7054 14.7525 86.9586 14.3727V14.2883C87.4229 13.6974 87.9294 13.191 88.478 12.7689C89.2799 12.178 90.1662 11.7982 91.137 11.5872C91.9389 11.4183 92.7408 11.4183 93.5849 11.5872C94.3868 11.7138 95.1887 12.0514 95.8639 12.4735C96.708 12.9799 97.4255 13.6974 97.932 14.4993C98.3119 15.0902 98.6073 15.7655 98.8183 16.4408C98.9027 16.8206 99.2404 17.0738 99.6202 17.0738C100 17.0738 99.7468 17.0738 99.8312 17.0738C100.169 16.9894 100.422 16.694 100.464 16.3563C101.266 17.4115 101.688 18.7198 101.604 20.1548L101.519 20.0704Z" fill="#EE342F"/>
</g>
<defs>
<clipPath id="clip0_110_2">
<rect width="95.4848" height="37.0457" fill="white" transform="translate(11.7399 6.68384)"/>
</clipPath>
</defs>
</svg>
