<svg width="145" height="55" viewBox="0 0 145 55" fill="none" xmlns="http://www.w3.org/2000/svg">
<path d="M77.6562 41.1112V41.0458L78.5392 36.5328C78.6046 36.1404 78.6046 36.075 78.4084 35.9769L78.1141 35.8461V35.6498L79.9454 35.4863L80.0109 35.5517C80.0109 35.5517 79.88 35.9769 79.7819 36.5001L79.5857 37.612C79.5203 37.9063 79.4222 38.2334 79.3895 38.3642C79.7492 37.9063 80.3379 37.3177 80.992 37.3177C81.646 37.3177 81.9076 37.8409 81.9076 38.5931C81.9076 40.3591 80.763 41.6999 79.226 41.6999C77.6889 41.6999 77.9506 41.4383 77.6235 41.1112H77.6562ZM80.6976 38.6258C80.6976 38.2334 80.5668 38.1026 80.3379 38.1026C80.0109 38.1026 79.553 38.495 79.3241 38.822L78.8663 41.0785C78.9317 41.2093 79.1279 41.3729 79.3895 41.3729C80.109 41.3729 80.6976 40.0647 80.6976 38.5931V38.6258Z" fill="#FDEFD2"/>
<path d="M81.2862 42.7136C81.2862 42.4193 81.4825 42.2558 81.7441 42.2558C82.1365 42.2558 82.2019 42.6809 82.4963 42.6809C82.7906 42.6809 82.9541 42.5174 83.3138 42.0596C83.183 40.4244 82.9868 39.1163 82.8233 38.4949C82.6925 38.0698 82.6271 38.0371 82.3001 38.2987L82.1692 38.3968L82.0384 38.2006C82.4636 37.7428 83.0522 37.3176 83.4774 37.3176C83.9025 37.3176 83.9025 37.4484 84.0006 37.939C84.1641 38.7566 84.2949 39.7703 84.3603 40.7187C84.8836 39.9339 85.4068 39.0182 85.4068 38.4622C85.4068 37.9063 85.0798 38.0698 85.0798 37.7428C85.0798 37.4157 85.3087 37.3176 85.5704 37.3176C85.832 37.3176 86.0936 37.5138 86.0936 37.9063C86.0936 38.6257 85.3087 40.0647 84.3603 41.3074C83.4773 42.5174 82.7252 43.2696 81.973 43.2696C81.2209 43.2696 81.2862 43.0406 81.2862 42.7136Z" fill="#FDEFD2"/>
<path d="M89.0093 41.0785C88.4206 40.5553 88.0936 39.7377 88.0936 38.6912C88.0936 37.6447 88.3879 36.8271 89.0093 36.3039C89.6307 35.7807 90.4482 35.4863 91.5274 35.4863C92.6066 35.4863 92.345 35.4863 92.7047 35.5844C93.0317 35.6498 93.3588 35.7479 93.6858 35.9115V37.612C93.1952 37.3831 92.6393 37.2523 92.0506 37.2523C91.462 37.2523 91.1023 37.3504 90.8407 37.5793C90.579 37.8082 90.4482 38.168 90.4482 38.6912C90.4482 39.2145 90.579 39.5415 90.8407 39.7704C91.1023 39.9993 91.4947 40.0974 92.0506 40.0974C92.6066 40.0974 93.1952 39.9666 93.7185 39.6723V41.471C93.1298 41.7326 92.4104 41.8961 91.5274 41.8961C90.6444 41.8961 89.5979 41.6345 89.0093 41.0785Z" fill="#FDEFD2"/>
<path d="M94.2418 38.6912C94.2418 37.6447 94.5361 36.8599 95.092 36.3039C95.648 35.748 96.4982 35.4863 97.6428 35.4863C98.7874 35.4863 99.6377 35.748 100.226 36.3039C100.782 36.8599 101.077 37.6447 101.077 38.6912C101.077 40.8169 99.932 41.8961 97.6428 41.8961C95.3863 41.8961 94.2418 40.8169 94.2418 38.6912ZM98.4604 39.7704C98.6239 39.5415 98.722 39.1818 98.722 38.6912C98.722 38.2007 98.6239 37.8409 98.4604 37.612C98.2969 37.3831 98.0353 37.285 97.6428 37.285C97.2504 37.285 97.0215 37.4158 96.858 37.612C96.6945 37.8409 96.5964 38.2007 96.5964 38.6912C96.5964 39.1818 96.6945 39.5415 96.858 39.7704C97.0215 39.9993 97.2831 40.0974 97.6428 40.0974C98.0026 40.0974 98.2969 39.9993 98.4604 39.7704Z" fill="#FDEFD2"/>
<path d="M101.6 35.6171H103.758L103.824 36.075C104.053 35.9115 104.38 35.748 104.739 35.6498C105.099 35.5517 105.492 35.4863 105.884 35.4863C106.603 35.4863 107.159 35.6825 107.486 36.0423C107.813 36.4347 107.977 37.0234 107.977 37.8082V41.7326H105.655V38.0372C105.655 37.7755 105.59 37.5466 105.492 37.4485C105.361 37.3177 105.165 37.2523 104.903 37.2523C104.641 37.2523 104.543 37.285 104.38 37.3831C104.183 37.4812 104.053 37.5793 103.922 37.7101V41.7326H101.6V35.5844V35.6171Z" fill="#FDEFD2"/>
<path d="M107.977 35.6172H110.397L111.509 39.2145L112.621 35.6172H115.041L112.752 41.7653H110.332L108.042 35.6172H107.977Z" fill="#FDEFD2"/>
<path d="M115.76 41.2421C115.074 40.6861 114.746 39.7377 114.746 38.7239C114.746 37.7101 115.008 36.8926 115.597 36.3366C116.185 35.7807 117.101 35.519 118.213 35.519C119.325 35.519 120.077 35.7807 120.666 36.2712C121.254 36.7945 121.549 37.4812 121.549 38.3642V39.4434H117.167C117.265 39.7704 117.428 39.9993 117.755 40.1302C118.082 40.261 118.573 40.3591 119.194 40.3591C119.815 40.3591 119.914 40.3591 120.306 40.261C120.437 40.261 120.666 40.1956 120.764 40.1956V41.6999C120.175 41.8634 119.423 41.9615 118.573 41.9615C117.395 41.9615 116.447 41.8634 115.76 41.3075V41.2421ZM119.129 38.1026C119.129 37.8083 118.802 37.1542 118.115 37.1542C117.428 37.1542 117.101 37.8083 117.101 38.1026H119.096H119.129Z" fill="#FDEFD2"/>
<path d="M123.38 38.6259L121.222 35.6172H123.74L128.155 41.7653H125.637L124.655 40.3918L123.674 41.7653H121.156L123.413 38.6586L123.38 38.6259Z" fill="#FDEFD2"/>
<path d="M125.571 35.6172H128.057L126.127 38.2988L124.852 36.5656L125.538 35.5845L125.571 35.6172Z" fill="#FDEFD2"/>
<g clip-path="url(#clip0_110_25)">
<path d="M79.1964 18.787L77.4037 18.1123C76.7517 17.8633 75.7764 17.5497 74.6871 17.3615C72.1873 16.9606 70.0829 17.301 68.4937 18.3771C67.2144 19.2383 66.2734 20.4835 65.7508 22.1089L63.7357 21.8049L63.5495 22.9341C62.1446 22.0008 60.3975 21.4439 58.352 21.3414C55.6259 21.2313 53.2212 21.9861 51.4572 23.5907C51.2652 23.7599 51.0352 23.9709 50.885 24.1782C49.6701 22.1955 47.6208 21.1729 44.9499 21.3802C44.3511 21.4088 43.796 21.5153 43.2846 21.6997L42.8508 15.9587L32.804 16.7178L33.0647 20.5065C30.6104 18.5429 27.2151 17.8246 23.4151 18.6859C16.486 20.2167 12.882 26.0302 14.4622 33.157C15.2305 36.6814 16.9625 39.4397 19.4396 41.0421C21.2988 42.2738 23.5649 42.8059 26.04 42.6879C28.5151 42.5699 27.7528 42.5262 28.6234 42.3247C30.9997 41.8113 32.9519 40.7979 34.4479 39.4462L34.4936 40.4043L52.8744 39.0477L52.8497 38.5287C54.2469 39.3024 55.9503 39.7813 57.8741 39.8496C58.2334 39.8325 58.5946 39.8553 58.914 39.8401C60.391 39.7696 61.813 39.3817 63.0638 38.7619L62.9099 39.7296L72.8655 41.2555L74.3287 31.6629L77.1499 32.0885L78.366 24.0282L79.1565 18.7889L79.1964 18.787ZM33.6812 29.2397L31.6794 29.2151L33.5994 28.3634L33.6394 29.2017L33.6812 29.2397ZM26.7142 33.333C26.1592 33.4395 25.8721 33.2932 25.663 33.1031C25.3721 32.8769 24.8626 32.261 24.5546 30.8352C24.4005 30.1224 24.0126 27.8602 25.2387 27.5616C25.3185 27.5578 25.3984 27.554 25.4782 27.5502C25.7577 27.5369 26.0847 27.6814 26.3737 28.7079L27.0791 30.9149L27.1248 31.873C27.2693 33.2265 26.912 33.2836 26.6743 33.3349L26.7142 33.333Z" fill="#EE342F"/>
<path d="M16.7949 32.5655C15.517 26.7448 18.3416 22.2088 23.9228 20.9423C28.6354 19.9174 32.4812 21.6945 33.8711 25.6694L28.6968 27.9168C27.9932 25.7497 26.5883 24.8164 24.7653 25.1834C22.4689 25.693 21.4977 27.98 22.2564 31.3048C22.9714 34.5516 24.8877 36.1407 27.2639 35.6273C28.9672 35.266 29.8187 33.825 29.5924 31.5951L35.3144 31.6023C35.2785 35.8853 32.6611 38.891 28.0683 39.9102C22.2476 41.1881 18.0766 38.4661 16.793 32.5256L16.7949 32.5655Z" fill="#FDEFD2"/>
<path d="M36.6893 37.7787L35.3079 18.879L40.5717 18.508L41.1578 26.6024C41.8724 24.8078 43.1499 23.9067 45.0223 23.7373C47.8529 23.5223 49.4137 25.2084 49.6592 28.6777L50.2453 36.7722L44.9814 37.1432L44.4201 29.5678C44.3592 28.2903 43.8117 27.7162 42.8536 27.7619C41.8156 27.8114 41.2967 28.6764 41.409 30.1915L41.9493 37.3278L36.6855 37.6989L36.6893 37.7787Z" fill="#FDEFD2"/>
<path d="M64.6621 32.0034L55.7198 31.5896C55.6629 32.9127 56.6647 33.7852 58.1095 33.8764C59.1513 33.9067 60.0105 33.4656 60.6454 32.5151L64.3391 34.4596C63.1131 36.4386 60.6476 37.5965 57.8816 37.4883C53.2698 37.2681 50.5816 34.5955 50.7809 30.3848C50.9802 26.174 53.8563 23.5561 58.1487 23.7916C62.5591 23.9814 64.8899 26.711 64.6925 30.9617L64.6241 32.0453L64.6621 32.0034ZM59.7212 29.0781C59.8086 27.5535 59.166 26.6639 57.9227 26.6032C56.6794 26.5424 55.959 27.377 55.8318 28.9035L59.6813 29.08L59.7212 29.0781Z" fill="#FDEFD2"/>
<path d="M72.7999 25.6139L75.621 26.0395L75.0984 29.3454L72.2773 28.9198L70.8142 38.5123L65.6149 37.72L67.0781 28.1274L65.1827 27.8177L65.7053 24.5118L67.6006 24.8215L67.7241 24.0554C68.239 20.5898 70.4517 19.1639 74.3203 19.7397C75.0864 19.8632 75.8563 20.0666 76.5502 20.3536L76.001 23.9408C75.5942 23.8001 75.1893 23.6994 74.8262 23.6367C73.7787 23.4866 73.0792 23.9201 72.9633 24.8459L72.8398 25.612L72.7999 25.6139Z" fill="#FDEFD2"/>
<path d="M97.9741 14.7118C97.5942 12.7704 95.3151 11.251 92.5296 11.251C89.7441 11.251 88.9844 11.9263 88.0136 12.9814C87.0007 13.0658 86.03 13.3612 85.1859 13.9521C83.9619 14.7962 83.1178 16.1046 82.8646 17.5817C82.6114 19.0589 82.9068 20.5361 83.7931 21.7601C84.2152 22.3931 84.8061 22.8996 85.4391 23.3216L84.4684 28.6395C84.3418 29.3992 86.8319 30.4543 90.0817 31.0452C93.2893 31.6361 96.0326 31.5094 96.1592 30.7498L97.13 25.4319C99.4934 24.9254 101.393 22.8996 101.561 20.3673C101.73 17.835 100.211 15.5981 97.9741 14.7118Z" fill="white"/>
<path d="M98.9871 13.319C97.7632 11.673 95.9061 10.4913 93.8381 10.1114C91.7278 9.73158 89.6176 10.1958 87.8872 11.2932C86.5788 11.3776 85.3549 11.7996 84.2575 12.5593C82.6537 13.6567 81.5986 15.3449 81.261 17.2441C80.9233 19.1433 81.3454 21.0848 82.4427 22.6886C82.9492 23.4482 83.6245 24.0813 84.3841 24.5878L83.6666 28.5551C83.54 29.3148 84.1731 30.7919 89.9552 31.8471C91.3902 32.1003 92.783 32.2269 93.8803 32.2269C94.9776 32.2269 94.1757 32.2269 94.3023 32.2269C95.3575 32.2269 96.7924 32.0159 96.9613 30.9608L97.6787 26.9935C100.675 26.276 102.997 23.7015 103.208 20.4517C103.419 17.3285 101.646 14.543 98.9871 13.2768V13.319ZM95.3153 30.4543C94.7666 30.6231 92.9518 30.7075 90.1663 30.2433C87.4229 29.7368 85.7347 29.0193 85.2704 28.6817L85.4393 27.711C86.41 28.1752 88.0138 28.7661 90.3351 29.1881C91.8966 29.4836 93.1628 29.568 94.1757 29.568C95.1887 29.568 95.1043 29.568 95.4419 29.5258L95.2731 30.4965L95.3153 30.4543ZM95.8217 27.7532C94.9776 27.8376 93.205 27.9642 90.6727 27.4999C88.1404 27.0357 86.5366 26.3182 85.7769 25.9383L85.8613 25.4319L86.0301 24.3768C86.832 25.1364 87.8872 25.6429 89.0267 25.8117C89.6176 25.9383 90.2506 25.9383 90.8837 25.8961C91.5168 26.1916 92.1499 26.4026 92.8252 26.5292C93.1628 26.5714 93.5427 26.6136 93.8803 26.6136C94.64 26.6136 95.3575 26.487 96.0328 26.1916L95.8639 27.1623L95.7795 27.6688L95.8217 27.7532ZM101.519 20.3673C101.351 22.773 99.6624 24.6722 97.51 25.3475C97.9742 24.8832 98.3118 24.3346 98.5228 23.7437C98.6495 23.2794 98.3963 22.8152 97.932 22.6886C97.4677 22.5619 97.0035 22.8152 96.8769 23.2794C96.7081 23.9125 96.2016 24.4612 95.4419 24.7566C94.8088 25.0098 94.0913 25.0942 93.3738 25.0098C93.0362 25.0098 92.6985 24.8832 92.3609 24.7566C92.2765 24.7566 92.1499 24.6722 92.0655 24.63L92.3609 23.1106C92.4453 22.6463 92.1499 22.2243 91.6856 22.1399C91.2214 22.0555 90.7993 22.3509 90.7149 22.8152L90.4617 24.3345C90.3773 24.3345 90.2507 24.3345 90.1663 24.3345C89.8286 24.3345 89.4909 24.2923 89.1955 24.2079C88.478 24.0391 87.8027 23.7015 87.2963 23.2372C86.7054 22.6885 86.41 22.0133 86.4522 21.4224C86.4522 20.9581 86.1146 20.5783 85.6503 20.5361C85.186 20.5361 84.8062 20.8737 84.764 21.338C84.764 21.9711 84.8906 22.6463 85.2282 23.2372C84.7218 22.8574 84.2575 22.4353 83.8777 21.8866C83.0336 20.6627 82.6959 19.1855 82.9492 17.7083C83.2024 16.2312 84.0465 14.965 85.2704 14.0787C85.3126 14.0787 85.3971 13.9943 85.4393 13.9521C85.3549 14.2897 85.4393 14.6696 85.7769 14.8806C86.1568 15.1338 86.7054 15.0494 86.9586 14.6696V14.5852C87.4229 13.9943 87.9294 13.4878 88.478 13.0658C89.2799 12.4749 90.1662 12.0951 91.137 11.884C91.9389 11.7152 92.7408 11.7152 93.5849 11.884C94.3868 12.0107 95.1887 12.3483 95.8639 12.7703C96.708 13.2768 97.4255 13.9943 97.932 14.7962C98.3119 15.3871 98.6073 16.0623 98.8183 16.7376C98.9027 17.1175 99.2404 17.3707 99.6202 17.3707C100 17.3707 99.7468 17.3707 99.8312 17.3707C100.169 17.2863 100.422 16.9909 100.464 16.6532C101.266 17.7083 101.688 19.0167 101.604 20.4517L101.519 20.3673Z" fill="#EE342F"/>
</g>
<defs>
<clipPath id="clip0_110_25">
<rect width="95.4848" height="37.0457" fill="white" transform="translate(11.7399 6.98071)"/>
</clipPath>
</defs>
</svg>
